<svg width="14" height="14" viewBox="0 0 24 24" fill="none" stroke="currentColor" stroke-width="1.5" stroke-linecap="round" stroke-linejoin="round" class="" data-om-id="jsx:/https:/019e0b3e-4675-72fd-a2fb-bdf72d2e1047.claudeusercontent.com/v1/design/projects/019e0b3e-4675-72fd-a2fb-bdf72d2e1047/serve/icons.jsx:126:3:3"><circle cx="12" cy="12" r="3" data-om-id="jsx:/https:/019e0b3e-4675-72fd-a2fb-bdf72d2e1047.claudeusercontent.com/v1/design/projects/019e0b3e-4675-72fd-a2fb-bdf72d2e1047/serve/icons.jsx:2348:36:24"></circle><path d="M19.4 15a1.7 1.7 0 0 0 .3 1.8l.1.1a2 2 0 1 1-2.8 2.8l-.1-.1a1.7 1.7 0 0 0-1.8-.3 1.7 1.7 0 0 0-1 1.5V21a2 2 0 1 1-4 0v-.1a1.7 1.7 0 0 0-1-1.5 1.7 1.7 0 0 0-1.8.3l-.1.1a2 2 0 1 1-2.8-2.8l.1-.1a1.7 1.7 0 0 0 .3-1.8 1.7 1.7 0 0 0-1.5-1H3a2 2 0 1 1 0-4h.1a1.7 1.7 0 0 0 1.5-1 1.7 1.7 0 0 0-.3-1.8l-.1-.1a2 2 0 1 1 2.8-2.8l.1.1a1.7 1.7 0 0 0 1.8.3 1.7 1.7 0 0 0 1-1.5V3a2 2 0 1 1 4 0v.1a1.7 1.7 0 0 0 1 1.5 1.7 1.7 0 0 0 1.8-.3l.1-.1a2 2 0 1 1 2.8 2.8l-.1.1a1.7 1.7 0 0 0-.3 1.8 1.7 1.7 0 0 0 1.5 1H21a2 2 0 1 1 0 4h-.1a1.7 1.7 0 0 0-1.5 1Z" data-om-id="jsx:/https:/019e0b3e-4675-72fd-a2fb-bdf72d2e1047.claudeusercontent.com/v1/design/projects/019e0b3e-4675-72fd-a2fb-bdf72d2e1047/serve/icons.jsx:2379:36:55"></path></svg>
